<svg width="125" height="29" viewBox="0 0 125 29" fill="none" xmlns="http://www.w3.org/2000/svg">
<path d="M55.0349 20.9369L56.8381 17.3901C58.7614 18.6369 61.6225 19.5182 64.3633 19.5182C67.4887 19.5182 68.763 18.5939 68.763 17.3256C68.763 13.4994 55.4917 16.1433 55.4917 8.55529C55.4917 5.07295 58.6172 2.1925 65.1086 2.1925C67.9936 2.1925 70.9268 2.81589 73.0425 3.99817L71.4076 7.58797C69.2919 6.51318 67.1041 5.97578 65.0845 5.97578C61.9591 5.97578 60.7329 7.02908 60.7329 8.31884C60.7329 12.0806 74.0282 9.4796 74.0282 16.9817C74.0282 20.3995 70.8546 23.3015 64.3392 23.3015C60.7089 23.3015 57.0544 22.3556 55.0349 20.9369Z" fill="white"/>
<path d="M93.9352 13.9722V22.9575H88.8623V14.6816C88.8623 12.1451 87.564 10.9628 85.3041 10.9628C82.8518 10.9628 81.0967 12.3171 81.0967 15.1975V22.9575H75.9998V1.31116H81.0967V8.8992C82.4671 7.67393 84.4145 7.02906 86.6745 7.02906C90.8097 7.02906 93.9352 9.20013 93.9352 13.9722Z" fill="white"/>
<path d="M97.2769 7.26562V22.9576H102.35V7.26562H97.2769Z" fill="white"/>
<path d="M102.974 2.45054C102.974 3.97675 101.7 5.07305 99.8249 5.07305C97.9256 5.07305 96.6514 3.97675 96.6514 2.53653C96.6514 1.1178 97.9256 0 99.8249 0C101.7 0 102.974 1.0533 102.974 2.45054Z" fill="white"/>
<path fill-rule="evenodd" clip-rule="evenodd" d="M124.925 15.1116C124.925 20.0341 121.103 23.194 116.198 23.194C114.01 23.194 112.207 22.5707 110.909 21.3024V28.611H105.812V7.26556H110.669V9.07122C111.943 7.69549 113.842 7.02911 116.198 7.02911C121.103 7.02911 124.925 10.189 124.925 15.1116ZM119.78 15.1116C119.78 12.4031 117.857 10.7694 115.309 10.7694C112.76 10.7694 110.837 12.4031 110.837 15.1116C110.837 17.82 112.76 19.4537 115.309 19.4537C117.857 19.4537 119.78 17.82 119.78 15.1116Z" fill="white"/>
<path d="M0.00248516 14.1872C-0.0455991 12.575 0.603535 11.2208 1.99798 10.2749C5.29175 7.99637 8.60956 5.73929 12.0235 3.65419C14.2114 2.32145 17.0483 2.88035 18.563 4.66451C20.1738 6.55615 20.0055 9.04967 18.01 10.7049C16.88 11.6507 15.6539 12.4675 14.4037 13.2844C13.6103 13.8218 13.3458 14.2087 14.4037 14.7461C15.2452 15.176 15.9905 15.7134 16.7839 16.2078C17.7696 16.8312 18.1062 17.691 17.4571 18.5724C16.7117 19.5612 15.702 19.3032 14.7643 18.7228C12.865 17.5406 10.9897 16.3368 9.11444 15.1545C7.93638 14.4451 7.93638 13.7788 9.0904 13.0264C11.0939 11.708 13.0734 10.3609 15.0288 8.98519C15.7501 8.49078 16.5435 7.91038 15.9905 6.98606C15.4135 5.99724 14.5239 5.7178 13.442 6.42717C10.4608 8.3833 7.43149 10.3179 4.5224 12.3815C2.88753 13.5208 3.03178 14.961 4.71473 16.0788C7.67191 17.992 10.6291 19.9051 13.6584 21.7323C16.5194 23.4519 19.717 22.2696 20.4142 19.2172C21.1595 15.9928 21.8087 12.704 22.3616 9.43659C23.3955 3.41774 29.5502 1.07468 35.0799 4.62151C37.9169 6.47015 40.8019 8.27581 43.687 10.103C47.125 12.317 47.4376 16.1863 44.1678 18.5724C41.0905 20.8079 37.8448 22.8715 34.575 24.8707C32.1227 26.3539 29.1896 25.795 27.6269 23.7314C26.0882 21.6893 26.569 19.0238 28.8049 17.4761C29.8628 16.7237 30.9206 15.9929 32.0266 15.305C32.844 14.7676 32.7959 14.3592 31.9785 13.8863C31.0649 13.3704 30.1272 12.8329 29.3098 12.2311C28.5645 11.6722 28.1798 10.9198 28.853 10.103C29.4781 9.32911 30.3677 9.22165 31.2332 9.71605C33.3489 11.0058 35.4405 12.3171 37.4841 13.6928C38.4939 14.3592 38.1333 15.0255 37.2437 15.6059C35.2242 16.9387 33.2768 18.3359 31.2572 19.6471C30.2715 20.3135 29.8868 21.1089 30.6081 21.9902C31.3053 22.8285 32.2429 22.6781 33.1565 22.0762C35.9695 20.2061 38.8545 18.4004 41.6194 16.4658C43.3744 15.2405 43.2783 13.6283 41.4992 12.4675C38.6381 10.6404 35.7531 8.81322 32.844 7.05055C29.7426 5.18041 26.545 6.40567 25.8237 9.78052C25.1024 13.0909 24.5014 16.4228 23.8282 19.7546C22.7944 25.0426 16.856 27.3427 11.8793 24.3548C8.70573 22.4201 5.60429 20.378 2.45478 18.4219C0.771828 17.3901 0.0746115 15.9498 0.00248516 14.1872Z" fill="white"/>
</svg>
