<svg width="110" height="59" viewBox="0 0 110 59" fill="none" xmlns="http://www.w3.org/2000/svg">
<path d="M5.00531 29.0833C4.90255 25.638 6.28978 22.7439 9.26976 20.7227C16.3087 15.8533 23.399 11.0298 30.6948 6.57386C35.3703 3.72573 41.433 4.92014 44.6699 8.73296C48.1123 12.7755 47.7526 18.1042 43.4882 21.6414C41.0733 23.6627 38.453 25.4083 35.7813 27.1539C34.0858 28.3024 33.5206 29.1293 35.7813 30.2777C37.5796 31.1965 39.1723 32.3449 40.8678 33.4015C42.9744 34.7336 43.6937 36.5711 42.3064 38.4546C40.7137 40.5677 38.5558 40.0165 36.552 38.7762C32.4931 36.2496 28.4855 33.6771 24.4779 31.1505C21.9604 29.6346 21.9604 28.2105 24.4266 26.6027C28.7081 23.7852 32.9384 20.9064 37.1172 17.9664C38.6585 16.9099 40.3541 15.6695 39.1723 13.6942C37.9392 11.5811 36.0382 10.9839 33.7261 12.4998C27.3552 16.6802 20.8814 20.8146 14.6646 25.2246C11.1708 27.6593 11.4791 30.7371 15.0756 33.1258C21.3952 37.2143 27.7148 41.3028 34.1886 45.2075C40.3027 48.8825 47.1361 46.3559 48.6261 39.8327C50.2188 32.9421 51.6061 25.9136 52.7878 18.9311C54.9971 6.06856 68.1501 1.06134 79.9672 8.64105C86.03 12.5917 92.1955 16.4505 98.3609 20.3552C105.708 25.0867 106.376 33.3555 99.3885 38.4546C92.812 43.2321 85.8758 47.6421 78.8883 51.9143C73.6476 55.084 67.3794 53.8896 64.0397 49.4796C60.7515 45.1155 61.7791 39.4193 66.5573 36.1118C68.818 34.504 71.0787 32.9421 73.4421 31.4721C75.189 30.3237 75.0862 29.4508 73.3394 28.4402C71.387 27.3377 69.3832 26.1892 67.6363 24.903C66.0435 23.7086 65.2215 22.1008 66.6601 20.3552C67.9959 18.7014 69.897 18.4717 71.7466 19.5283C76.2679 22.2846 80.7379 25.0868 85.1051 28.0268C87.2631 29.4508 86.4924 30.8749 84.5913 32.1152C80.2755 34.9634 76.1138 37.9493 71.798 40.7515C69.6915 42.1755 68.8694 43.8752 70.4108 45.7587C71.9007 47.5502 73.9045 47.2287 75.8569 45.9424C81.8683 41.9459 88.0337 38.0871 93.9423 33.9527C97.693 31.3343 97.4875 27.8889 93.6854 25.4083C87.5713 21.5036 81.4059 17.5989 75.189 13.832C68.5611 9.83545 61.7277 12.4539 60.1863 19.6661C58.645 26.7405 57.3605 33.8608 55.9219 40.9812C53.7126 52.2818 41.022 57.1972 30.3865 50.8118C23.6045 46.6774 16.9766 42.3134 10.246 38.133C6.64943 35.928 5.15945 32.8502 5.00531 29.0833Z" fill="#0B4FFE"/>
<path fill-rule="evenodd" clip-rule="evenodd" d="M0.00830977 29.2613L0.00748389 29.2336C-0.144408 24.1409 2.01629 19.6116 6.44246 16.6C13.4868 11.727 20.6698 6.8391 28.0886 2.30802L28.0936 2.305C34.9131 -1.84921 43.6833 -0.150736 48.4791 5.49542C49.5622 6.76798 50.4189 8.17297 51.0157 9.66144C53.3996 5.85734 56.8589 3.0176 61.0014 1.44644C67.7286 -1.10505 75.6212 -0.0854087 82.6667 4.43365L82.6818 4.44337L82.6969 4.4532C87.3528 7.48712 92.0624 10.4619 96.8208 13.4674C98.2217 14.3522 99.6269 15.2398 101.036 16.1323L101.052 16.1424L101.068 16.1527C105.786 19.1908 108.906 23.7533 109.24 28.9475C109.579 34.2203 106.978 39.1074 102.336 42.4948L102.327 42.5011C95.5915 47.3943 88.5242 51.8846 81.4964 56.1814L81.4862 56.1877L81.4759 56.1939C74.1932 60.5987 65.0415 59.0859 60.0537 52.4994L60.0464 52.4898C59.213 51.3837 58.5644 50.2233 58.092 49.0347C52.0592 58.8009 38.6287 61.5935 27.8128 55.0998L27.7983 55.0911L27.7839 55.0823C23.939 52.7384 20.0157 50.2399 16.1458 47.7753C13.2554 45.9346 10.3948 44.1128 7.61894 42.3886C2.45893 39.2192 0.223891 34.5298 0.00944226 29.289L0.00830977 29.2613ZM62.6194 32.8254C62.9594 32.5463 63.3142 32.278 63.6833 32.0214C64.5759 31.3868 65.4785 30.752 66.3952 30.122C65.8108 29.7404 65.2323 29.3433 64.6716 28.9305L64.654 28.9176L64.6365 28.9045C64.2975 28.6502 63.9316 28.3487 63.566 27.9971C63.2466 29.6024 62.9332 31.2099 62.6194 32.8254ZM66.66 20.3564C65.2214 22.102 66.0435 23.7099 67.6362 24.9042C69.3831 26.1905 71.3869 27.339 73.3393 28.4415C75.0862 29.4521 75.189 30.3249 73.4421 31.4733C71.0786 32.9433 68.818 34.5052 66.5573 36.113C61.779 39.4205 60.7514 45.1168 64.0397 49.4809C67.3793 53.8909 73.6476 55.0853 78.8882 51.9156C85.8758 47.6434 92.812 43.2333 99.3885 38.4558C106.376 33.3568 105.708 25.088 98.3609 20.3564C96.9635 19.4714 95.5661 18.5888 94.17 17.7069C89.4059 14.6978 84.6558 11.6975 79.9672 8.6423C68.15 1.06259 54.997 6.06981 52.7877 18.9323C51.606 25.9149 50.2188 32.9433 48.626 39.834C47.136 46.3571 40.3026 48.8837 34.1885 45.2087C27.7153 41.3043 21.3961 37.2161 15.0769 33.128L15.0755 33.1271C11.479 30.7383 11.1707 27.6605 14.6645 25.2258C19.6188 21.7114 24.7362 18.3721 29.8348 15.045C31.1341 14.1971 32.4322 13.35 33.7261 12.5011C36.0382 10.9851 37.9392 11.5823 39.1723 13.6954C40.354 15.6708 38.6585 16.9111 37.1171 17.9677C32.9383 20.9077 28.7081 23.7865 24.4265 26.604C21.9603 28.2118 21.9603 29.6358 24.4779 31.1517C25.9572 32.0844 27.4366 33.0233 28.9185 33.9639C31.4511 35.5713 33.9913 37.1835 36.5519 38.7774C38.5557 40.0177 40.7136 40.569 42.3064 38.4558C43.6936 36.5724 42.9743 34.7349 40.8678 33.4027C40.3524 33.0815 39.8464 32.7518 39.3414 32.4227C38.1849 31.6691 37.0329 30.9184 35.7813 30.279C33.5206 29.1305 34.0858 28.3036 35.7813 27.1552C36.4948 26.689 37.2046 26.2228 37.9079 25.7513L37.911 25.7492C39.84 24.4561 41.7192 23.1233 43.4881 21.6427C47.7526 18.1055 48.1122 12.7767 44.6698 8.73421C41.433 4.92139 35.3702 3.72697 30.6948 6.57511C23.3989 11.0311 16.3086 15.8545 9.26971 20.7239C6.28973 22.7452 4.9025 25.6392 5.00526 29.0845C5.1594 32.8514 6.64938 35.9293 10.2459 38.1343C13.1525 39.9395 16.0398 41.779 18.9288 43.6195C22.7296 46.0409 26.5332 48.4641 30.3865 50.8131C41.0219 57.1984 53.7125 52.2831 55.9218 40.9824C56.4499 38.369 56.9571 35.7555 57.4639 33.1443C58.338 28.6414 59.2107 24.1451 60.1863 19.6673C61.7276 12.4551 68.5611 9.8367 75.1889 13.8333C81.4058 17.6002 87.5713 21.5048 93.6854 25.4095C97.4874 27.8902 97.6929 31.3355 93.9423 33.954C90.1 36.6425 86.149 39.2146 82.2024 41.7837C80.0801 43.1653 77.9591 44.5461 75.8569 45.9437C73.9045 47.2299 71.9007 47.5515 70.4107 45.7599C68.8693 43.8765 69.6914 42.1768 71.798 40.7527C74.1419 39.2308 76.4403 37.6548 78.7427 36.076C80.6797 34.7479 82.6194 33.4178 84.5913 32.1165C86.4923 30.8762 87.263 29.4521 85.1051 28.028C80.7379 25.088 76.2679 22.2858 71.7466 19.5296C69.8969 18.473 67.9959 18.7026 66.66 20.3564ZM46.5024 25.6392C45.2329 26.6905 43.9247 27.6657 42.6166 28.5856C42.9432 28.7979 43.2441 28.9922 43.5122 29.1592L43.5262 29.168L43.5403 29.1768C44.1956 29.5913 44.8723 30.1036 45.4957 30.7249C45.8435 29.0332 46.179 27.3371 46.5024 25.6392Z" fill="white"/>
</svg>
