<?xml version="1.0" standalone="no"?>
<!DOCTYPE svg PUBLIC "-//W3C//DTD SVG 20010904//EN"
 "http://www.w3.org/TR/2001/REC-SVG-20010904/DTD/svg10.dtd">
<svg version="1.0" xmlns="http://www.w3.org/2000/svg"
 width="1760.000000pt" height="1760.000000pt" viewBox="0 0 1760.000000 1760.000000"
 preserveAspectRatio="xMidYMid meet">
<metadata>
Created by potrace 1.14, written by Peter Selinger 2001-2017
</metadata>
<g transform="translate(0.000000,1760.000000) scale(0.100000,-0.100000)"
fill="#000000" stroke="none">
<path d="M5635 12710 c-198 -23 -418 -86 -581 -168 -99 -50 -352 -201 -639
-384 -255 -162 -426 -271 -524 -333 -215 -138 -1283 -850 -1611 -1075 -728
-498 -893 -615 -979 -691 -284 -251 -452 -582 -491 -974 -27 -255 23 -618 116
-846 88 -215 188 -366 357 -537 121 -122 222 -197 512 -379 468 -293 688 -433
1765 -1118 698 -444 1325 -830 1490 -917 302 -158 694 -284 1010 -323 634 -78
1218 36 1735 340 460 271 824 703 1020 1211 67 172 90 257 154 569 55 269 89
442 252 1280 148 760 267 1353 355 1765 30 140 57 269 60 285 10 53 75 245
109 325 192 448 568 757 1023 842 221 41 521 24 746 -43 157 -47 358 -137 518
-232 815 -487 2944 -1830 3098 -1955 140 -113 247 -253 298 -390 19 -52 26
-92 30 -182 4 -109 3 -120 -27 -209 -53 -159 -171 -311 -341 -440 -193 -147
-1021 -702 -1995 -1336 -245 -159 -570 -373 -723 -474 -391 -259 -529 -321
-714 -321 -193 0 -374 124 -474 327 -67 134 -56 286 30 416 69 103 180 195
478 393 252 167 501 336 1258 854 118 81 317 215 442 298 126 84 259 181 297
218 162 152 174 301 36 439 -131 133 -2173 1430 -2364 1504 -143 55 -277 61
-403 20 -125 -41 -252 -141 -330 -261 -57 -86 -73 -141 -73 -244 0 -84 3 -95
37 -165 65 -131 163 -222 438 -406 140 -93 303 -192 544 -330 225 -129 268
-157 312 -205 52 -55 64 -80 64 -128 0 -88 -65 -160 -250 -278 -319 -203 -902
-601 -1130 -771 -106 -79 -273 -250 -353 -361 -78 -111 -165 -281 -206 -406
-87 -266 -86 -597 0 -859 189 -569 706 -999 1324 -1101 147 -24 438 -25 580 0
226 38 447 116 645 228 139 78 688 417 1195 738 815 516 1946 1285 2255 1534
204 164 385 384 499 606 109 212 158 394 168 621 24 544 -254 1070 -777 1466
-47 36 -188 130 -315 210 -234 149 -434 275 -810 513 -716 452 -1314 834
-1670 1065 -473 307 -627 395 -880 503 -359 153 -706 236 -1091 262 -520 35
-1077 -101 -1504 -365 -599 -372 -1022 -1009 -1165 -1758 -22 -118 -117 -649
-145 -817 -101 -599 -488 -2452 -572 -2735 -147 -499 -544 -870 -1050 -982
-67 -14 -127 -18 -308 -18 -199 0 -237 3 -329 23 -138 31 -313 93 -436 155
-200 100 -1072 639 -2115 1307 -530 339 -1048 675 -1140 739 -52 36 -138 108
-190 161 -181 182 -256 375 -221 565 24 130 131 298 263 414 147 128 1399 979
2278 1548 102 66 356 232 565 368 396 259 500 316 613 340 86 19 127 19 212
-1 158 -36 320 -184 408 -372 23 -49 27 -70 27 -147 0 -78 -4 -97 -27 -140
-57 -109 -137 -186 -353 -337 -571 -402 -1224 -848 -1750 -1196 -154 -101
-321 -216 -372 -253 -156 -117 -229 -243 -203 -347 20 -82 80 -159 185 -239
34 -26 197 -130 740 -473 50 -31 252 -160 450 -285 682 -432 920 -579 1010
-621 292 -138 520 -118 697 63 195 198 231 427 100 629 -70 107 -168 186 -462
376 -331 212 -417 264 -580 353 -216 117 -270 168 -270 256 0 94 57 146 450
408 1084 724 1364 993 1515 1454 44 136 58 234 58 402 -1 168 -19 283 -68 425
-229 655 -851 1095 -1580 1115 -82 2 -186 0 -230 -5z"/>
</g>
</svg>
